<?xml version="1.0" standalone="no"?>
<!DOCTYPE svg PUBLIC "-//W3C//DTD SVG 20010904//EN"
 "http://www.w3.org/TR/2001/REC-SVG-20010904/DTD/svg10.dtd">
<svg version="1.0" xmlns="http://www.w3.org/2000/svg"
 width="712.000000pt" height="712.000000pt" viewBox="0 0 712.000000 712.000000"
 preserveAspectRatio="xMidYMid meet">
<metadata>
Created by potrace 1.14, written by Peter Selinger 2001-2017
</metadata>
<g transform="translate(0.000000,712.000000) scale(0.100000,-0.100000)"
fill="#000000" stroke="none">
<path d="M3558 6195 c-2 -2 -30 -6 -63 -9 -301 -30 -591 -114 -870 -253 -78
-39 -240 -132 -270 -155 -5 -4 -55 -41 -110 -82 -107 -80 -132 -101 -239 -204
-343 -331 -583 -764 -682 -1227 -17 -83 -34 -182 -41 -245 -10 -94 -10 -443 1
-530 13 -106 55 -308 87 -417 242 -818 905 -1450 1754 -1673 60 -16 126 -31
145 -34 19 -3 46 -8 59 -10 13 -3 49 -8 80 -12 31 -3 65 -8 76 -11 38 -9 430
-11 500 -2 39 5 93 11 120 14 28 3 57 8 65 10 8 2 31 7 50 10 92 15 322 78
385 104 11 5 52 21 90 36 211 84 502 257 657 393 270 235 439 444 601 742 119
220 218 523 253 779 3 25 8 57 11 71 9 47 11 425 2 500 -11 101 -19 161 -24
185 -3 11 -7 31 -9 45 -29 178 -124 449 -227 646 -345 664 -968 1130 -1716
1284 -51 11 -114 22 -140 25 -26 3 -64 8 -83 11 -37 6 -456 14 -462 9z"/>
</g>
</svg>
